# xmcd CD database file
#
# Track frame offsets:
#	150
#	23127
#	46690
#	74025
#	98395
#	115272
#	145015
#	170067
#	192945
#	204940
#	221695
#	239920
#	263105
#	279340
#	296960
#
# Disc length: 4409 seconds
#
# Revision: 0
# Processed by: cddbd v1.5.2PL0 Copyright (c) Steve Scherf et al.
# Submitted via: CDex 1.70beta2
#
DISCID=e711370f
DTITLE=Various Artist - Life made me Beautiful at Forty
DYEAR=1995
DGENRE=Jazz
TTITLE0=Eartha Kitt - Life made me Beautiful at Forty
TTITLE1=Abbey Lincoln - Lady on the Stage
TTITLE2=Tiziana Simona - Left Alone
TTITLE3=Harry Beckett and Keith Tippett - The Question
TTITLE4=Özay - The Man I Love
TTITLE5=Twana Rhodes - Moon of Roses
TTITLE6=Ronnell Bey and Kazda - Don't Waste Your Time
TTITLE7=Wilton Felder - Sice I Fell for You
TTITLE8=Catharina Valente - Samba de Uma Nota So
TTITLE9=Catharina Valente - Baciami per Doman
TTITLE10=Tiziana Simona - Kind Folk
TTITLE11=Maggie Nichols - Loverly
TTITLE12=Harry Beckett and Joachim Kühn - The Time Keeper
TTITLE13=Tiziana Simona - Flowers for Albert
TTITLE14=Abbey Lincoln - Sophisticated Lady
EXTD=YEAR: 1995
EXTT0=
EXTT1=
EXTT2=
EXTT3=
EXTT4=
EXTT5=
EXTT6=
EXTT7=
EXTT8=
EXTT9=
EXTT10=
EXTT11=
EXTT12=
EXTT13=
EXTT14=
PLAYORDER=
